<?xml version="1.0" encoding="UTF-8"?>
<svg width="16px" height="16px" viewBox="0 0 16 16" version="1.1" xmlns="http://www.w3.org/2000/svg" xmlns:xlink="http://www.w3.org/1999/xlink">
    <!-- Generator: Sketch 63 (92445) - https://sketch.com -->
    <title>icon/16/日历灰</title>
    <desc>Created with Sketch.</desc>
    <g id="icon/16/日历灰" stroke="none" stroke-width="1" fill="none" fill-rule="evenodd">
        <rect id="矩形" fill="#333333" fill-rule="nonzero" opacity="0" x="0" y="0" width="16" height="16"></rect>
        <path d="M14.2171875,13.21875 C14.2171875,13.6990625 13.8242187,14.0920312 13.3439062,14.0920312 L3.74515625,14.0920312 C3.25703125,14.0920312 2.871875,13.6990625 2.871875,13.21875 L2.871875,5.61140625 L14.2171875,5.61140625 L14.2171875,4.738125 L2.8734375,4.738125 L2.8734375,3.6184375 C2.8734375,3.138125 3.25703125,2.74515625 3.74671875,2.74515625 L5.49171875,2.74515625 L5.49171875,3.181875 C5.49171875,3.42671875 5.68359375,3.6184375 5.9284375,3.6184375 C6.16390625,3.6184375 6.36515625,3.4265625 6.36515625,3.181875 L6.36515625,2.74515625 L10.7285937,2.74515625 L10.7285937,3.181875 C10.7285937,3.42671875 10.9204687,3.6184375 11.1651562,3.6184375 C11.400625,3.6184375 11.601875,3.4265625 11.601875,3.181875 L11.601875,2.74515625 L13.346875,2.74515625 C13.8271875,2.74515625 14.2201562,3.138125 14.2201562,3.6184375 L14.2201562,13.21875 L14.2171875,13.21875 L14.2171875,13.21875 Z M13.3454687,1.87328125 L11.6004687,1.87328125 L11.6004687,1.4365625 C11.6004687,1.20109375 11.3992187,1 11.16375,1 C10.9189062,1 10.7271875,1.20125 10.7271875,1.4365625 L10.7271875,1.87328125 L6.36359375,1.87328125 L6.36359375,1.4365625 C6.36359375,1.20109375 6.16234375,1 5.926875,1 C5.68203125,1 5.49015625,1.20125 5.49015625,1.4365625 L5.49015625,1.87328125 L3.74515625,1.87328125 C2.77671875,1.87328125 2,2.65921875 2,3.61828125 L2,13.2170312 C2,14.1854687 2.7765625,14.9620312 3.74515625,14.9620312 L13.3439062,14.9620312 C14.3045312,14.9620312 15.0889091,14.1854687 15.0889091,13.2170312 L15.0889091,3.6184375 C15.090625,2.659375 14.3045312,1.87328125 13.3454687,1.87328125 L13.3454687,1.87328125 Z M11.0607812,10.3679687 L12.5376562,10.3679687 L12.5376562,11.8151562 L11.0607812,11.8151562 L11.0607812,10.3679687 Z M7.80765625,10.3679687 L9.28453125,10.3679687 L9.28453125,11.8151562 L7.80765625,11.8151562 L7.80765625,10.3679687 L7.80765625,10.3679687 Z M4.55453125,10.3679687 L6.03140625,10.3679687 L6.03140625,11.8151562 L4.55453125,11.8151562 L4.55453125,10.3679687 Z M11.0607812,7.2971875 L12.5376562,7.2971875 L12.5376562,8.744375 L11.0607812,8.744375 L11.0607812,7.2971875 Z M7.80765625,7.2971875 L9.28453125,7.2971875 L9.28453125,8.744375 L7.80765625,8.744375 L7.80765625,7.2971875 L7.80765625,7.2971875 Z M4.55453125,7.2971875 L6.03140625,7.2971875 L6.03140625,8.744375 L4.55453125,8.744375 L4.55453125,7.2971875 Z" id="形状" fill="#97A6BD" fill-rule="nonzero"></path>
    </g>
</svg>