<?xml version="1.0" encoding="UTF-8"?>
<svg width="16px" height="16px" viewBox="0 0 16 16" version="1.1" xmlns="http://www.w3.org/2000/svg" xmlns:xlink="http://www.w3.org/1999/xlink">
    <!-- Generator: Sketch 63 (92445) - https://sketch.com -->
    <title>icon/16/按钮/转入</title>
    <desc>Created with Sketch.</desc>
    <g id="icon/16/按钮/转入" stroke="none" stroke-width="1" fill="none" fill-rule="evenodd">
        <g id="按钮/蓝备份-2" fill="#4991FD">
            <rect id="矩形" x="0" y="0" width="16" height="16" rx="8"></rect>
        </g>
        <g id="异地转入" transform="translate(3.000000, 3.000000)" fill="#FFFFFF" fill-rule="nonzero">
            <rect id="矩形" opacity="0" x="0" y="0" width="10" height="10"></rect>
            <path d="M4.97460938,6.77148437 C4.72851562,6.77148437 4.49707031,6.67578125 4.32324219,6.50097656 L3.3671875,5.54492187 C3.0078125,5.18554687 3.0078125,4.60058594 3.3671875,4.24121094 L4.32324219,3.28515625 C4.49707031,3.11132812 4.72851562,3.01464844 4.97460937,3.01464844 C5.22070312,3.01464844 5.45214844,3.11035156 5.62597656,3.28515625 L6.58203125,4.24121094 C6.94140625,4.60058594 6.94140625,5.18554687 6.58203125,5.54492187 L5.62597656,6.50097656 C5.45214844,6.67578125 5.22070312,6.77148437 4.97460938,6.77148437 Z M4.97460938,3.63085937 C4.89257812,3.63085937 4.81542969,3.66308594 4.7578125,3.72070312 L3.80175781,4.67675781 C3.68164062,4.796875 3.68164062,4.99121094 3.80175781,5.11132812 L4.7578125,6.06738281 C4.87402344,6.18359375 5.07617188,6.18359375 5.19238281,6.06738281 L6.1484375,5.11132812 C6.26855469,4.99121094 6.26855469,4.796875 6.1484375,4.67675781 L5.19238281,3.72070312 C5.13378906,3.66308594 5.05664063,3.63085937 4.97460938,3.63085937 L4.97460938,3.63085937 Z" id="形状"></path>
            <path d="M0.987304687,4.55664062 C0.96875,4.55664062 0.950195312,4.5546875 0.931640625,4.55175781 C0.764648437,4.52148437 0.654296875,4.36132812 0.684570312,4.19433594 C1.06542969,2.125 2.86914062,0.624023437 4.97460938,0.624023437 C7.08007812,0.624023437 8.88378906,2.125 9.26367187,4.19335937 C9.28027344,4.28320312 9.25585937,4.375 9.19726562,4.4453125 C9.13867187,4.515625 9.05273438,4.55566406 8.9609375,4.55566406 L7.83203125,4.55566406 C7.66210937,4.55566406 7.52441406,4.41796875 7.52441406,4.24804687 C7.52441406,4.078125 7.66210937,3.94042969 7.83203125,3.94042969 L8.57421875,3.94042969 C8.11621094,2.35351562 6.65722656,1.23730469 4.97460938,1.23730469 C3.16601562,1.23730469 1.61621094,2.52734375 1.2890625,4.30371094 C1.26269531,4.45214844 1.1328125,4.55664062 0.987304687,4.55664062 Z M4.97460937,9.34863281 C2.86914062,9.34863281 1.06542969,7.84765625 0.685546875,5.77929687 C0.668945312,5.68945312 0.693359375,5.59765625 0.751953125,5.52734375 C0.810546875,5.45703125 0.896484375,5.41699219 0.98828125,5.41699219 L2.11816406,5.41699219 C2.28808594,5.41699219 2.42578125,5.5546875 2.42578125,5.72460938 C2.42578125,5.89453125 2.28808594,6.03222656 2.11816406,6.03222656 L1.37597656,6.03222656 C1.83300781,7.6171875 3.29101562,8.734375 4.97460937,8.734375 C6.78320312,8.734375 8.33300781,7.44433594 8.66015625,5.66796875 C8.69042969,5.50097656 8.8515625,5.390625 9.01757812,5.42089844 C9.18457031,5.45117188 9.29492187,5.61132812 9.26464844,5.77832031 C8.88378906,7.84765625 7.08007812,9.34863281 4.97460937,9.34863281 L4.97460937,9.34863281 Z" id="形状"></path>
        </g>
    </g>
</svg>